<svg xmlns="http://www.w3.org/2000/svg" viewBox="0 0 213.81 27.83"><path d="M202.93 26.13c-1.97-.27-2.28-.76-2.28-2.65l-.01-7.97c1.72-1.56 3.14-2.32 4.38-2.32 1.69 0 2.18.86 2.18 2.41l.01 7.87c0 1.9-.31 2.38-2.27 2.66v1.07l8.87-.02v-1.07c-1.97-.27-2.28-.76-2.28-2.65l-.01-8.25c0-2.76-1.18-4.73-4.67-4.72-2.14 0-4.24 1.32-6.31 3.08l-.01-3.31h-1.59l-5 3.29v.76h2.38l.02 9.18c0 1.9-.31 2.38-2.27 2.66v1.07l8.87-.02-.01-1.07zm-13.73.02c-2.24-.34-2.56-.82-2.56-2.96l-.01-7.11c.69-1.24 1.34-2.14 2.03-2.76 0 1.35.94 2.21 2.11 2.21s2.31-.94 2.31-2.73c0-1.52-.87-2.45-2.39-2.45-1.69 0-3 1.42-4.24 3.42l-.01-3.49h-1.52l-5 3.29v.76h2.38l.02 9.18c0 1.9-.31 2.38-2.27 2.66v1.07l9.15-.02v-1.07zm-21.62-9.35c0-2.8 1.17-4.45 3.44-4.46 1.59 0 2.59 1.13 3.01 3.38l-6.42 2.22c-.03-.38-.03-.76-.03-1.14m10.81 7.33-.93-.72a5.244 5.244 0 0 1-3.97 1.8c-3.18.01-4.97-2.41-5.64-5.55l10.35-3.47c-.21-3.66-2.91-5.65-6.33-5.65-4.8.01-8.31 3.88-8.3 8.68.01 4.76 3.05 8.38 8.4 8.37 3.29 0 5.25-1.45 6.42-3.46m-15.94 1.59-.52-1.1c-.93.42-1.76.62-2.48.63-1.62 0-2.04-.82-2.04-1.96l-.02-10.39 4.38-.01v-1.97l-4.38.01-.01-3.21h-.62l-6.2 4.08v1.1h2.52l.02 11.29c0 2.24 1.28 3.45 3.8 3.44 1.97-.01 3.9-.67 5.55-1.91m-13.05-3.5c-.01-3.21-2.66-4.21-5.15-5-2.45-.79-4.14-1.3-4.15-3.1 0-.97.72-1.86 2.14-1.87 1.76 0 3.31 1.06 5.18 3.17l.9-.42-1.32-4.27h-.55l-.62.52c-.97-.41-2.07-.65-3.25-.65-3.66.01-6.04 2.12-6.03 5.29.01 3.21 2.66 4.14 5.15 4.96 2.45.82 4.14 1.3 4.15 3.13 0 1.14-.86 2-2.52 2.01-2.31 0-4.08-1.51-6.18-4.2l-.93.35 1.36 5.38h.59l1-.73c1.14.55 2.42.86 3.83.86 3.51-.01 6.41-2.08 6.4-5.43m-26.57.7c0-1.76.79-2.59 4.83-3.7l.01 5c-.96.76-1.83 1.11-2.69 1.11-1.35.01-2.15-.72-2.15-2.41m7.6 4.61c1.48 0 3.07-.7 4.1-1.42l-.31-.97c-1.69.31-2.31.07-2.31-1.07l-.02-9.21c0-2.76-1.22-4.24-5.12-4.24-4.38.01-7.59 2.36-7.58 4.57 0 1.07.73 1.97 1.97 1.96 1.41 0 2.1-.94 2.31-1.87.21-1.07-.14-1.86-.66-2.31.86-.42 1.72-.62 2.62-.63 1.48 0 2.21.51 2.21 1.86l.01 3.45c-6.17 1.53-9 2.88-9 6.16 0 2.52 1.63 3.86 4.18 3.86 1.62 0 3.48-.7 5.07-1.94.25 1.15 1.05 1.8 2.53 1.8m-24.49-10.62c0-2.8 1.17-4.45 3.44-4.46 1.59 0 2.59 1.13 3.01 3.38l-6.42 2.22c-.03-.38-.03-.76-.03-1.14m10.82 7.33-.93-.72a5.244 5.244 0 0 1-3.97 1.8c-3.18.01-4.97-2.41-5.64-5.55l10.35-3.47c-.21-3.66-2.91-5.65-6.33-5.65-4.8.01-8.31 3.88-8.3 8.68.01 4.76 3.05 8.38 8.4 8.37 3.28 0 5.25-1.45 6.42-3.46m-27.47 2.09c-1.97-.27-2.28-.76-2.28-2.65L87 15.67c1.65-1.52 2.93-2.28 4.38-2.29 1.69 0 2.18.86 2.18 2.41l.01 7.87c0 1.9-.31 2.38-2.27 2.66v1.07l8.87-.02V26.3c-1.97-.27-2.28-.76-2.28-2.65l-.01-8.25c0-2.76-1.18-4.73-4.67-4.72-2.11 0-4.17 1.25-6.21 2.98L86.97 0h-1.28l-5.55 3.63v.76h2.52l.03 19.29c0 1.9-.31 2.38-2.27 2.66v1.07l8.87-.02v-1.06zm-9.91-.47-.52-1.1c-.93.42-1.76.62-2.48.63-1.62 0-2.04-.82-2.04-1.96l-.02-10.39 4.38-.01v-1.97l-4.38.01-.01-3.21h-.62l-6.2 4.08v1.1h2.52l.02 11.29c0 2.24 1.28 3.45 3.8 3.44 1.97 0 3.9-.66 5.55-1.91m-16.91.52c-2.24-.34-2.56-.82-2.56-2.96l-.01-7.12c.69-1.24 1.34-2.14 2.03-2.76 0 1.35.94 2.21 2.11 2.21s2.31-.94 2.31-2.73c0-1.52-.87-2.45-2.39-2.45-1.69 0-3 1.42-4.24 3.42l-.01-3.49h-1.52l-5 3.29v.76h2.38l.02 9.18c0 1.9-.31 2.38-2.27 2.66v1.07l9.15-.02v-1.06zm-24.93-8.83c-.01-3.11 1.34-5.08 4.17-5.08 3.66-.01 4.74 4.48 4.74 8.58.01 3.11-1.34 5.08-4.17 5.08-3.65.01-4.73-4.47-4.74-8.58m13.22 1.53c-.01-4.52-3.05-8.31-8.61-8.3-5.59.01-8.93 4.05-8.92 8.75.01 4.52 3.05 8.31 8.61 8.3 5.59-.01 8.93-4.06 8.92-8.75M28.24 8.32c-.01-4.04 1.13-5.08 3.1-5.63V1.62l-8.35.01V2.7c1.97.55 3.11 1.58 3.12 5.62l.02 12.15L8.49 2.73c-.97-.97-1.35-1.07-1.97-1.07L0 1.67v1.07c1.42.14 2.24.69 3.87 2.24.52.48 1 1.07 1 2.03l.03 13.84c.01 4.04-1.13 5.08-3.1 5.63v1.07l8.35-.01v-1.07c-1.97-.55-3.11-1.58-3.12-5.62L7.02 7.8l19.84 19.88h1.41l-.03-19.36z"></path></svg>